<?xml version="1.0" encoding="UTF-8" standalone="no"?>
<!DOCTYPE svg PUBLIC "-//W3C//DTD SVG 1.1//EN"
 "http://www.w3.org/Graphics/SVG/1.1/DTD/svg11.dtd">
<!-- Generated by graphviz version 2.38.0 (20140413.2041)
 -->
<!-- Title: G Pages: 1 -->
<svg width="934pt" height="654pt"
 viewBox="0.00 0.00 934.44 654.00" xmlns="http://www.w3.org/2000/svg" xmlns:xlink="http://www.w3.org/1999/xlink">
<g id="graph0" class="graph" transform="scale(1 1) rotate(0) translate(4 650)">
<title>G</title>
<polygon fill="white" stroke="none" points="-4,4 -4,-650 930.441,-650 930.441,4 -4,4"/>
<g id="clust1" class="cluster"><title>cluster_Global</title>
<path fill="none" stroke="gray" d="M294.22,-206C294.22,-206 906.441,-206 906.441,-206 912.441,-206 918.441,-212 918.441,-218 918.441,-218 918.441,-626 918.441,-626 918.441,-632 912.441,-638 906.441,-638 906.441,-638 294.22,-638 294.22,-638 288.22,-638 282.22,-632 282.22,-626 282.22,-626 282.22,-218 282.22,-218 282.22,-212 288.22,-206 294.22,-206"/>
<text text-anchor="middle" x="600.33" y="-625.2" font-family="Times New Roman,serif" font-size="11.00" fill="gray">Global</text>
</g>
<g id="clust2" class="cluster"><title>cluster_\Slothsoft</title>
<path fill="none" stroke="gray" d="M302.22,-214C302.22,-214 898.441,-214 898.441,-214 904.441,-214 910.441,-220 910.441,-226 910.441,-226 910.441,-598 910.441,-598 910.441,-604 904.441,-610 898.441,-610 898.441,-610 302.22,-610 302.22,-610 296.22,-610 290.22,-604 290.22,-598 290.22,-598 290.22,-226 290.22,-226 290.22,-220 296.22,-214 302.22,-214"/>
<text text-anchor="middle" x="600.33" y="-597.2" font-family="Times New Roman,serif" font-size="11.00" fill="gray">Slothsoft</text>
</g>
<g id="clust3" class="cluster"><title>cluster_\Slothsoft\SSE</title>
<path fill="none" stroke="gray" d="M310.22,-222C310.22,-222 890.441,-222 890.441,-222 896.441,-222 902.441,-228 902.441,-234 902.441,-234 902.441,-570 902.441,-570 902.441,-576 896.441,-582 890.441,-582 890.441,-582 310.22,-582 310.22,-582 304.22,-582 298.22,-576 298.22,-570 298.22,-570 298.22,-234 298.22,-234 298.22,-228 304.22,-222 310.22,-222"/>
<text text-anchor="middle" x="600.33" y="-569.2" font-family="Times New Roman,serif" font-size="11.00" fill="gray">SSE</text>
</g>
<g id="clust4" class="cluster"><title>cluster_\Slothsoft\SSE\Results</title>
<path fill="none" stroke="gray" d="M745.441,-330C745.441,-330 882.441,-330 882.441,-330 888.441,-330 894.441,-336 894.441,-342 894.441,-342 894.441,-444 894.441,-444 894.441,-450 888.441,-456 882.441,-456 882.441,-456 745.441,-456 745.441,-456 739.441,-456 733.441,-450 733.441,-444 733.441,-444 733.441,-342 733.441,-342 733.441,-336 739.441,-330 745.441,-330"/>
<text text-anchor="middle" x="813.941" y="-443.2" font-family="Times New Roman,serif" font-size="11.00" fill="gray">Results</text>
</g>
<!-- \\Slothsoft\\SSE\\Results\\EventStreamBuilder -->
<g id="node1" class="node"><title>\\Slothsoft\\SSE\\Results\\EventStreamBuilder</title>
<polygon fill="none" stroke="black" points="882.941,-428 744.941,-428 744.941,-392 882.941,-392 882.941,-428"/>
<text text-anchor="middle" x="813.941" y="-407.2" font-family="Courier,monospace" font-size="11.00">EventStreamBuilder</text>
</g>
<!-- \\Slothsoft\\Farah\\Module\\Result\\StreamBuilderStrategy\\StreamBuilderStrategyInterface -->
<g id="node9" class="node"><title>\\Slothsoft\\Farah\\Module\\Result\\StreamBuilderStrategy\\StreamBuilderStrategyInterface</title>
<ellipse fill="none" stroke="black" cx="334.72" cy="-180" rx="323.043" ry="18"/>
<text text-anchor="middle" x="334.72" y="-176.3" font-family="Times New Roman,serif" font-size="14.00" fill="gray">\Slothsoft\Farah\Module\Result\StreamBuilderStrategy\StreamBuilderStrategyInterface</text>
</g>
<!-- \\Slothsoft\\SSE\\Results\\EventStreamBuilder&#45;&gt;\\Slothsoft\\Farah\\Module\\Result\\StreamBuilderStrategy\\StreamBuilderStrategyInterface -->
<g id="edge2" class="edge"><title>\\Slothsoft\\SSE\\Results\\EventStreamBuilder&#45;&gt;\\Slothsoft\\Farah\\Module\\Result\\StreamBuilderStrategy\\StreamBuilderStrategyInterface</title>
<path fill="none" stroke="black" stroke-dasharray="1,5" d="M744.969,-391.806C740.812,-389.247 736.914,-386.328 733.441,-383 676.65,-328.579 731.719,-266.044 669.441,-218 656.441,-207.971 642.264,-199.689 627.325,-192.891"/>
<polygon fill="none" stroke="black" points="628.499,-189.585 617.93,-188.847 625.731,-196.015 628.499,-189.585"/>
</g>
<!-- \\Slothsoft\\SSE\\Results\\ServerResultBuilder -->
<g id="node2" class="node"><title>\\Slothsoft\\SSE\\Results\\ServerResultBuilder</title>
<polygon fill="none" stroke="black" points="886.441,-374 741.441,-374 741.441,-338 886.441,-338 886.441,-374"/>
<text text-anchor="middle" x="813.941" y="-353.2" font-family="Courier,monospace" font-size="11.00">ServerResultBuilder</text>
</g>
<!-- \\Slothsoft\\Farah\\Module\\Executable\\ResultBuilderStrategy\\ResultBuilderStrategyInterface -->
<g id="node10" class="node"><title>\\Slothsoft\\Farah\\Module\\Executable\\ResultBuilderStrategy\\ResultBuilderStrategyInterface</title>
<ellipse fill="none" stroke="black" cx="334.72" cy="-126" rx="334.941" ry="18"/>
<text text-anchor="middle" x="334.72" y="-122.3" font-family="Times New Roman,serif" font-size="14.00" fill="gray">\Slothsoft\Farah\Module\Executable\ResultBuilderStrategy\ResultBuilderStrategyInterface</text>
</g>
<!-- \\Slothsoft\\SSE\\Results\\ServerResultBuilder&#45;&gt;\\Slothsoft\\Farah\\Module\\Executable\\ResultBuilderStrategy\\ResultBuilderStrategyInterface -->
<g id="edge3" class="edge"><title>\\Slothsoft\\SSE\\Results\\ServerResultBuilder&#45;&gt;\\Slothsoft\\Farah\\Module\\Executable\\ResultBuilderStrategy\\ResultBuilderStrategyInterface</title>
<path fill="none" stroke="black" stroke-dasharray="1,5" d="M741.237,-340.083C738.467,-338.266 735.85,-336.246 733.441,-334 671.035,-275.811 737.065,-205.033 669.441,-153 603.553,-102.303 507.123,-99.8258 434.843,-107.513"/>
<polygon fill="none" stroke="black" points="434.347,-104.047 424.809,-108.661 435.143,-111.001 434.347,-104.047"/>
</g>
<!-- \\Slothsoft\\SSE\\EventGenerator -->
<g id="node3" class="node"><title>\\Slothsoft\\SSE\\EventGenerator</title>
<polygon fill="none" stroke="black" points="869.441,-320 758.441,-320 758.441,-284 869.441,-284 869.441,-320"/>
<text text-anchor="middle" x="813.941" y="-299.2" font-family="Courier,monospace" font-size="11.00">EventGenerator</text>
</g>
<!-- \\Slothsoft\\Core\\IO\\Writable\\ChunkWriterInterface -->
<g id="node8" class="node"><title>\\Slothsoft\\Core\\IO\\Writable\\ChunkWriterInterface</title>
<ellipse fill="none" stroke="black" cx="334.72" cy="-72" rx="193.066" ry="18"/>
<text text-anchor="middle" x="334.72" y="-68.3" font-family="Times New Roman,serif" font-size="14.00" fill="gray">\Slothsoft\Core\IO\Writable\ChunkWriterInterface</text>
</g>
<!-- \\Slothsoft\\SSE\\EventGenerator&#45;&gt;\\Slothsoft\\Core\\IO\\Writable\\ChunkWriterInterface -->
<g id="edge1" class="edge"><title>\\Slothsoft\\SSE\\EventGenerator&#45;&gt;\\Slothsoft\\Core\\IO\\Writable\\ChunkWriterInterface</title>
<path fill="none" stroke="black" stroke-dasharray="1,5" d="M758.339,-290.751C749.191,-286.937 740.42,-281.832 733.441,-275 673.96,-216.777 735.632,-149.463 669.441,-99 601.12,-46.9139 500.453,-45.9707 427.561,-54.4783"/>
<polygon fill="none" stroke="black" points="426.956,-51.0265 417.466,-55.7371 427.822,-57.9727 426.956,-51.0265"/>
</g>
<!-- \\Slothsoft\\SSE\\Server -->
<g id="node4" class="node"><title>\\Slothsoft\\SSE\\Server</title>
<polygon fill="none" stroke="black" points="363.22,-527 306.22,-527 306.22,-491 363.22,-491 363.22,-527"/>
<text text-anchor="middle" x="334.72" y="-506.2" font-family="Courier,monospace" font-size="11.00">Server</text>
</g>
<!-- \\Slothsoft\\SSE\\Stream -->
<g id="node5" class="node"><title>\\Slothsoft\\SSE\\Stream</title>
<polygon fill="none" stroke="black" points="842.441,-266 785.441,-266 785.441,-230 842.441,-230 842.441,-266"/>
<text text-anchor="middle" x="813.941" y="-245.2" font-family="Courier,monospace" font-size="11.00">Stream</text>
</g>
<!-- \\Slothsoft\\Core\\IO\\HTTPStream -->
<g id="node11" class="node"><title>\\Slothsoft\\Core\\IO\\HTTPStream</title>
<ellipse fill="none" stroke="black" cx="334.72" cy="-18" rx="129.977" ry="18"/>
<text text-anchor="middle" x="334.72" y="-14.3" font-family="Times New Roman,serif" font-size="14.00" fill="gray">\Slothsoft\Core\IO\HTTPStream</text>
</g>
<!-- \\Slothsoft\\SSE\\Stream&#45;&gt;\\Slothsoft\\Core\\IO\\HTTPStream -->
<g id="edge4" class="edge"><title>\\Slothsoft\\SSE\\Stream&#45;&gt;\\Slothsoft\\Core\\IO\\HTTPStream</title>
<path fill="none" stroke="black" d="M806.352,-229.865C790.288,-188.603 744.806,-87.961 669.441,-45 599.409,-5.07986 507.32,-0.487232 437.621,-4.66194"/>
<polygon fill="none" stroke="black" points="437.25,-1.17886 427.506,-5.33833 437.717,-8.16326 437.25,-1.17886"/>
</g>
<!-- \\Slothsoft\\SSE\\UnisonServer -->
<g id="node6" class="node"><title>\\Slothsoft\\SSE\\UnisonServer</title>
<polygon fill="none" stroke="black" points="862.941,-554 764.941,-554 764.941,-518 862.941,-518 862.941,-554"/>
<text text-anchor="middle" x="813.941" y="-533.2" font-family="Courier,monospace" font-size="11.00">UnisonServer</text>
</g>
<!-- \\Slothsoft\\SSE\\UnisonServer&#45;&gt;\\Slothsoft\\SSE\\Server -->
<g id="edge5" class="edge"><title>\\Slothsoft\\SSE\\UnisonServer&#45;&gt;\\Slothsoft\\SSE\\Server</title>
<path fill="none" stroke="black" d="M764.556,-533.263C669.359,-527.876 459.528,-516.005 373.571,-511.142"/>
<polygon fill="none" stroke="black" points="373.661,-507.641 363.479,-510.571 373.266,-514.63 373.661,-507.641"/>
</g>
<!-- \\Slothsoft\\SSE\\VCTServer -->
<g id="node7" class="node"><title>\\Slothsoft\\SSE\\VCTServer</title>
<polygon fill="none" stroke="black" points="852.441,-500 775.441,-500 775.441,-464 852.441,-464 852.441,-500"/>
<text text-anchor="middle" x="813.941" y="-479.2" font-family="Courier,monospace" font-size="11.00">VCTServer</text>
</g>
<!-- \\Slothsoft\\SSE\\VCTServer&#45;&gt;\\Slothsoft\\SSE\\Server -->
<g id="edge6" class="edge"><title>\\Slothsoft\\SSE\\VCTServer&#45;&gt;\\Slothsoft\\SSE\\Server</title>
<path fill="none" stroke="black" d="M775.095,-484.141C685.803,-489.193 462.819,-501.809 373.547,-506.86"/>
<polygon fill="none" stroke="black" points="373.127,-503.378 363.34,-507.437 373.522,-510.367 373.127,-503.378"/>
</g>
</g>
</svg>
