<?xml version="1.0" encoding="UTF-8" standalone="no"?>
<!DOCTYPE svg PUBLIC "-//W3C//DTD SVG 1.1//EN"
 "http://www.w3.org/Graphics/SVG/1.1/DTD/svg11.dtd">
<!-- Generated by graphviz version 2.38.0 (20140413.2041)
 -->
<!-- Title: G Pages: 1 -->
<svg width="631pt" height="654pt"
 viewBox="0.00 0.00 631.07 654.00" xmlns="http://www.w3.org/2000/svg" xmlns:xlink="http://www.w3.org/1999/xlink">
<g id="graph0" class="graph" transform="scale(1 1) rotate(0) translate(4 650)">
<title>G</title>
<polygon fill="white" stroke="none" points="-4,4 -4,-650 627.066,-650 627.066,4 -4,4"/>
<g id="clust1" class="cluster"><title>cluster_Global</title>
<path fill="none" stroke="gray" d="M152.533,-206C152.533,-206 603.066,-206 603.066,-206 609.066,-206 615.066,-212 615.066,-218 615.066,-218 615.066,-626 615.066,-626 615.066,-632 609.066,-638 603.066,-638 603.066,-638 152.533,-638 152.533,-638 146.533,-638 140.533,-632 140.533,-626 140.533,-626 140.533,-218 140.533,-218 140.533,-212 146.533,-206 152.533,-206"/>
<text text-anchor="middle" x="377.799" y="-625.2" font-family="Times New Roman,serif" font-size="11.00" fill="gray">Global</text>
</g>
<g id="clust2" class="cluster"><title>cluster_\Slothsoft</title>
<path fill="none" stroke="gray" d="M160.533,-214C160.533,-214 595.066,-214 595.066,-214 601.066,-214 607.066,-220 607.066,-226 607.066,-226 607.066,-598 607.066,-598 607.066,-604 601.066,-610 595.066,-610 595.066,-610 160.533,-610 160.533,-610 154.533,-610 148.533,-604 148.533,-598 148.533,-598 148.533,-226 148.533,-226 148.533,-220 154.533,-214 160.533,-214"/>
<text text-anchor="middle" x="377.799" y="-597.2" font-family="Times New Roman,serif" font-size="11.00" fill="gray">Slothsoft</text>
</g>
<g id="clust3" class="cluster"><title>cluster_\Slothsoft\SSE</title>
<path fill="none" stroke="gray" d="M168.533,-222C168.533,-222 587.066,-222 587.066,-222 593.066,-222 599.066,-228 599.066,-234 599.066,-234 599.066,-570 599.066,-570 599.066,-576 593.066,-582 587.066,-582 587.066,-582 168.533,-582 168.533,-582 162.533,-582 156.533,-576 156.533,-570 156.533,-570 156.533,-234 156.533,-234 156.533,-228 162.533,-222 168.533,-222"/>
<text text-anchor="middle" x="377.799" y="-569.2" font-family="Times New Roman,serif" font-size="11.00" fill="gray">SSE</text>
</g>
<g id="clust4" class="cluster"><title>cluster_\Slothsoft\SSE\Results</title>
<path fill="none" stroke="gray" d="M462.066,-330C462.066,-330 579.066,-330 579.066,-330 585.066,-330 591.066,-336 591.066,-342 591.066,-342 591.066,-444 591.066,-444 591.066,-450 585.066,-456 579.066,-456 579.066,-456 462.066,-456 462.066,-456 456.066,-456 450.066,-450 450.066,-444 450.066,-444 450.066,-342 450.066,-342 450.066,-336 456.066,-330 462.066,-330"/>
<text text-anchor="middle" x="520.566" y="-443.2" font-family="Times New Roman,serif" font-size="11.00" fill="gray">Results</text>
</g>
<!-- \\Slothsoft\\SSE\\Results\\EventResult -->
<g id="node1" class="node"><title>\\Slothsoft\\SSE\\Results\\EventResult</title>
<polygon fill="none" stroke="black" points="566.066,-428 475.066,-428 475.066,-392 566.066,-392 566.066,-428"/>
<text text-anchor="middle" x="520.566" y="-407.2" font-family="Courier,monospace" font-size="11.00">EventResult</text>
</g>
<!-- \\Slothsoft\\Farah\\Module\\Results\\ResultBase -->
<g id="node10" class="node"><title>\\Slothsoft\\Farah\\Module\\Results\\ResultBase</title>
<ellipse fill="none" stroke="black" cx="193.033" cy="-180" rx="171.67" ry="18"/>
<text text-anchor="middle" x="193.033" y="-176.3" font-family="Times New Roman,serif" font-size="14.00" fill="gray">\Slothsoft\Farah\Module\Results\ResultBase</text>
</g>
<!-- \\Slothsoft\\SSE\\Results\\EventResult&#45;&gt;\\Slothsoft\\Farah\\Module\\Results\\ResultBase -->
<g id="edge4" class="edge"><title>\\Slothsoft\\SSE\\Results\\EventResult&#45;&gt;\\Slothsoft\\Farah\\Module\\Results\\ResultBase</title>
<path fill="none" stroke="black" d="M474.759,-398.892C465.736,-395.027 456.929,-389.867 450.066,-383 394.462,-327.367 446.323,-268.556 386.066,-218 373.56,-207.508 358.988,-199.616 343.564,-193.716"/>
<polygon fill="none" stroke="black" points="344.456,-190.32 333.861,-190.295 342.128,-196.921 344.456,-190.32"/>
</g>
<!-- \\Slothsoft\\SSE\\Results\\SSEResultCreator -->
<g id="node2" class="node"><title>\\Slothsoft\\SSE\\Results\\SSEResultCreator</title>
<polygon fill="none" stroke="black" points="583.066,-374 458.066,-374 458.066,-338 583.066,-338 583.066,-374"/>
<text text-anchor="middle" x="520.566" y="-353.2" font-family="Courier,monospace" font-size="11.00">SSEResultCreator</text>
</g>
<!-- \\Slothsoft\\Farah\\Module\\Results\\ResultCreator -->
<g id="node11" class="node"><title>\\Slothsoft\\Farah\\Module\\Results\\ResultCreator</title>
<ellipse fill="none" stroke="black" cx="193.033" cy="-126" rx="181.168" ry="18"/>
<text text-anchor="middle" x="193.033" y="-122.3" font-family="Times New Roman,serif" font-size="14.00" fill="gray">\Slothsoft\Farah\Module\Results\ResultCreator</text>
</g>
<!-- \\Slothsoft\\SSE\\Results\\SSEResultCreator&#45;&gt;\\Slothsoft\\Farah\\Module\\Results\\ResultCreator -->
<g id="edge6" class="edge"><title>\\Slothsoft\\SSE\\Results\\SSEResultCreator&#45;&gt;\\Slothsoft\\Farah\\Module\\Results\\ResultCreator</title>
<path fill="none" stroke="black" d="M457.798,-340.175C455.033,-338.338 452.431,-336.288 450.066,-334 388.735,-274.679 452.127,-207.003 386.066,-153 379.153,-147.349 371.612,-142.579 363.647,-138.569"/>
<polygon fill="none" stroke="black" points="365.032,-135.353 354.484,-134.357 362.108,-141.714 365.032,-135.353"/>
</g>
<!-- \\Slothsoft\\SSE\\Stream -->
<g id="node3" class="node"><title>\\Slothsoft\\SSE\\Stream</title>
<polygon fill="none" stroke="black" points="549.066,-320 492.066,-320 492.066,-284 549.066,-284 549.066,-320"/>
<text text-anchor="middle" x="520.566" y="-299.2" font-family="Courier,monospace" font-size="11.00">Stream</text>
</g>
<!-- \\Slothsoft\\Core\\IO\\HTTPStream -->
<g id="node8" class="node"><title>\\Slothsoft\\Core\\IO\\HTTPStream</title>
<ellipse fill="none" stroke="black" cx="193.033" cy="-72" rx="129.977" ry="18"/>
<text text-anchor="middle" x="193.033" y="-68.3" font-family="Times New Roman,serif" font-size="14.00" fill="gray">\Slothsoft\Core\IO\HTTPStream</text>
</g>
<!-- \\Slothsoft\\SSE\\Stream&#45;&gt;\\Slothsoft\\Core\\IO\\HTTPStream -->
<g id="edge1" class="edge"><title>\\Slothsoft\\SSE\\Stream&#45;&gt;\\Slothsoft\\Core\\IO\\HTTPStream</title>
<path fill="none" stroke="black" d="M491.797,-296.924C477.68,-293.058 461.201,-286.38 450.066,-275 391.855,-215.508 450.741,-151.392 386.066,-99 370.624,-86.491 352.094,-78.315 332.72,-73.139"/>
<polygon fill="none" stroke="black" points="333.38,-69.6981 322.839,-70.766 331.746,-76.5045 333.38,-69.6981"/>
</g>
<!-- \\Slothsoft\\SSE\\EventGenerator -->
<g id="node4" class="node"><title>\\Slothsoft\\SSE\\EventGenerator</title>
<polygon fill="none" stroke="black" points="576.066,-266 465.066,-266 465.066,-230 576.066,-230 576.066,-266"/>
<text text-anchor="middle" x="520.566" y="-245.2" font-family="Courier,monospace" font-size="11.00">EventGenerator</text>
</g>
<!-- \\Slothsoft\\Core\\IO\\Writable\\ChunkWriterInterface -->
<g id="node9" class="node"><title>\\Slothsoft\\Core\\IO\\Writable\\ChunkWriterInterface</title>
<ellipse fill="none" stroke="black" cx="193.033" cy="-18" rx="193.066" ry="18"/>
<text text-anchor="middle" x="193.033" y="-14.3" font-family="Times New Roman,serif" font-size="14.00" fill="gray">\Slothsoft\Core\IO\Writable\ChunkWriterInterface</text>
</g>
<!-- \\Slothsoft\\SSE\\EventGenerator&#45;&gt;\\Slothsoft\\Core\\IO\\Writable\\ChunkWriterInterface -->
<g id="edge2" class="edge"><title>\\Slothsoft\\SSE\\EventGenerator&#45;&gt;\\Slothsoft\\Core\\IO\\Writable\\ChunkWriterInterface</title>
<path fill="none" stroke="black" stroke-dasharray="1,5" d="M513.538,-229.892C498.939,-189.136 457.523,-90.2375 386.066,-45 378.043,-39.9211 369.457,-35.6336 360.53,-32.0248"/>
<polygon fill="none" stroke="black" points="361.705,-28.7275 351.113,-28.5049 359.254,-35.2845 361.705,-28.7275"/>
</g>
<!-- \\Slothsoft\\SSE\\UnisonServer -->
<g id="node5" class="node"><title>\\Slothsoft\\SSE\\UnisonServer</title>
<polygon fill="none" stroke="black" points="569.566,-554 471.566,-554 471.566,-518 569.566,-518 569.566,-554"/>
<text text-anchor="middle" x="520.566" y="-533.2" font-family="Courier,monospace" font-size="11.00">UnisonServer</text>
</g>
<!-- \\Slothsoft\\SSE\\Server -->
<g id="node6" class="node"><title>\\Slothsoft\\SSE\\Server</title>
<polygon fill="none" stroke="black" points="221.533,-527 164.533,-527 164.533,-491 221.533,-491 221.533,-527"/>
<text text-anchor="middle" x="193.033" y="-506.2" font-family="Courier,monospace" font-size="11.00">Server</text>
</g>
<!-- \\Slothsoft\\SSE\\UnisonServer&#45;&gt;\\Slothsoft\\SSE\\Server -->
<g id="edge3" class="edge"><title>\\Slothsoft\\SSE\\UnisonServer&#45;&gt;\\Slothsoft\\SSE\\Server</title>
<path fill="none" stroke="black" d="M471.532,-532.016C406.297,-526.605 291.032,-517.045 231.68,-512.122"/>
<polygon fill="none" stroke="black" points="231.872,-508.626 221.617,-511.288 231.293,-515.602 231.872,-508.626"/>
</g>
<!-- \\Slothsoft\\SSE\\VCTServer -->
<g id="node7" class="node"><title>\\Slothsoft\\SSE\\VCTServer</title>
<polygon fill="none" stroke="black" points="559.066,-500 482.066,-500 482.066,-464 559.066,-464 559.066,-500"/>
<text text-anchor="middle" x="520.566" y="-479.2" font-family="Courier,monospace" font-size="11.00">VCTServer</text>
</g>
<!-- \\Slothsoft\\SSE\\VCTServer&#45;&gt;\\Slothsoft\\SSE\\Server -->
<g id="edge5" class="edge"><title>\\Slothsoft\\SSE\\VCTServer&#45;&gt;\\Slothsoft\\SSE\\Server</title>
<path fill="none" stroke="black" d="M481.905,-485.124C419.412,-490.307 294.96,-500.629 232.16,-505.838"/>
<polygon fill="none" stroke="black" points="231.58,-502.374 221.904,-506.688 232.159,-509.35 231.58,-502.374"/>
</g>
</g>
</svg>
