<?xml version="1.0" encoding="UTF-8" standalone="no"?>
<!DOCTYPE svg PUBLIC "-//W3C//DTD SVG 1.1//EN"
 "http://www.w3.org/Graphics/SVG/1.1/DTD/svg11.dtd">
<!-- Generated by graphviz version 2.38.0 (20140413.2041)
 -->
<!-- Title: G Pages: 1 -->
<svg width="934pt" height="708pt"
 viewBox="0.00 0.00 934.44 708.00" xmlns="http://www.w3.org/2000/svg" xmlns:xlink="http://www.w3.org/1999/xlink">
<g id="graph0" class="graph" transform="scale(1 1) rotate(0) translate(4 704)">
<title>G</title>
<polygon fill="white" stroke="none" points="-4,4 -4,-704 930.441,-704 930.441,4 -4,4"/>
<g id="clust1" class="cluster"><title>cluster_Global</title>
<path fill="none" stroke="gray" d="M294.22,-206C294.22,-206 906.441,-206 906.441,-206 912.441,-206 918.441,-212 918.441,-218 918.441,-218 918.441,-680 918.441,-680 918.441,-686 912.441,-692 906.441,-692 906.441,-692 294.22,-692 294.22,-692 288.22,-692 282.22,-686 282.22,-680 282.22,-680 282.22,-218 282.22,-218 282.22,-212 288.22,-206 294.22,-206"/>
<text text-anchor="middle" x="600.33" y="-679.2" font-family="Times New Roman,serif" font-size="11.00" fill="gray">Global</text>
</g>
<g id="clust2" class="cluster"><title>cluster_\Slothsoft</title>
<path fill="none" stroke="gray" d="M302.22,-214C302.22,-214 898.441,-214 898.441,-214 904.441,-214 910.441,-220 910.441,-226 910.441,-226 910.441,-652 910.441,-652 910.441,-658 904.441,-664 898.441,-664 898.441,-664 302.22,-664 302.22,-664 296.22,-664 290.22,-658 290.22,-652 290.22,-652 290.22,-226 290.22,-226 290.22,-220 296.22,-214 302.22,-214"/>
<text text-anchor="middle" x="600.33" y="-651.2" font-family="Times New Roman,serif" font-size="11.00" fill="gray">Slothsoft</text>
</g>
<g id="clust3" class="cluster"><title>cluster_\Slothsoft\SSE</title>
<path fill="none" stroke="gray" d="M310.22,-222C310.22,-222 890.441,-222 890.441,-222 896.441,-222 902.441,-228 902.441,-234 902.441,-234 902.441,-624 902.441,-624 902.441,-630 896.441,-636 890.441,-636 890.441,-636 310.22,-636 310.22,-636 304.22,-636 298.22,-630 298.22,-624 298.22,-624 298.22,-234 298.22,-234 298.22,-228 304.22,-222 310.22,-222"/>
<text text-anchor="middle" x="600.33" y="-623.2" font-family="Times New Roman,serif" font-size="11.00" fill="gray">SSE</text>
</g>
<g id="clust4" class="cluster"><title>cluster_\Slothsoft\SSE\Results</title>
<path fill="none" stroke="gray" d="M745.441,-330C745.441,-330 882.441,-330 882.441,-330 888.441,-330 894.441,-336 894.441,-342 894.441,-342 894.441,-444 894.441,-444 894.441,-450 888.441,-456 882.441,-456 882.441,-456 745.441,-456 745.441,-456 739.441,-456 733.441,-450 733.441,-444 733.441,-444 733.441,-342 733.441,-342 733.441,-336 739.441,-330 745.441,-330"/>
<text text-anchor="middle" x="813.941" y="-443.2" font-family="Times New Roman,serif" font-size="11.00" fill="gray">Results</text>
</g>
<!-- \\Slothsoft\\SSE\\Results\\EventStreamBuilder -->
<g id="node1" class="node"><title>\\Slothsoft\\SSE\\Results\\EventStreamBuilder</title>
<polygon fill="none" stroke="black" points="882.941,-428 744.941,-428 744.941,-392 882.941,-392 882.941,-428"/>
<text text-anchor="middle" x="813.941" y="-407.2" font-family="Courier,monospace" font-size="11.00">EventStreamBuilder</text>
</g>
<!-- \\Slothsoft\\Farah\\Module\\Result\\StreamBuilderStrategy\\StreamBuilderStrategyInterface -->
<g id="node9" class="node"><title>\\Slothsoft\\Farah\\Module\\Result\\StreamBuilderStrategy\\StreamBuilderStrategyInterface</title>
<ellipse fill="none" stroke="black" cx="334.72" cy="-180" rx="323.043" ry="18"/>
<text text-anchor="middle" x="334.72" y="-176.3" font-family="Times New Roman,serif" font-size="14.00" fill="gray">\Slothsoft\Farah\Module\Result\StreamBuilderStrategy\StreamBuilderStrategyInterface</text>
</g>
<!-- \\Slothsoft\\SSE\\Results\\EventStreamBuilder&#45;&gt;\\Slothsoft\\Farah\\Module\\Result\\StreamBuilderStrategy\\StreamBuilderStrategyInterface -->
<g id="edge1" class="edge"><title>\\Slothsoft\\SSE\\Results\\EventStreamBuilder&#45;&gt;\\Slothsoft\\Farah\\Module\\Result\\StreamBuilderStrategy\\StreamBuilderStrategyInterface</title>
<path fill="none" stroke="black" stroke-dasharray="1,5" d="M744.969,-391.806C740.812,-389.247 736.914,-386.328 733.441,-383 676.65,-328.579 731.719,-266.044 669.441,-218 656.441,-207.971 642.264,-199.689 627.325,-192.891"/>
<polygon fill="none" stroke="black" points="628.499,-189.585 617.93,-188.847 625.731,-196.015 628.499,-189.585"/>
</g>
<!-- \\Slothsoft\\Core\\IO\\Writable\\ChunkWriterInterface -->
<g id="node10" class="node"><title>\\Slothsoft\\Core\\IO\\Writable\\ChunkWriterInterface</title>
<ellipse fill="none" stroke="black" cx="334.72" cy="-126" rx="193.066" ry="18"/>
<text text-anchor="middle" x="334.72" y="-122.3" font-family="Times New Roman,serif" font-size="14.00" fill="gray">\Slothsoft\Core\IO\Writable\ChunkWriterInterface</text>
</g>
<!-- \\Slothsoft\\SSE\\Results\\EventStreamBuilder&#45;&gt;\\Slothsoft\\Core\\IO\\Writable\\ChunkWriterInterface -->
<g id="edge2" class="edge"><title>\\Slothsoft\\SSE\\Results\\EventStreamBuilder&#45;&gt;\\Slothsoft\\Core\\IO\\Writable\\ChunkWriterInterface</title>
<path fill="none" stroke="black" stroke-dasharray="1,5" d="M744.586,-392.187C740.519,-389.538 736.745,-386.495 733.441,-383 660.542,-305.9 751.27,-220.546 669.441,-153 601.152,-96.6317 495.967,-97.7877 421.976,-107.967"/>
<polygon fill="none" stroke="black" points="421.14,-104.552 411.75,-109.458 422.15,-111.479 421.14,-104.552"/>
</g>
<!-- \\Slothsoft\\SSE\\Results\\ServerResultBuilder -->
<g id="node2" class="node"><title>\\Slothsoft\\SSE\\Results\\ServerResultBuilder</title>
<polygon fill="none" stroke="black" points="886.441,-374 741.441,-374 741.441,-338 886.441,-338 886.441,-374"/>
<text text-anchor="middle" x="813.941" y="-353.2" font-family="Courier,monospace" font-size="11.00">ServerResultBuilder</text>
</g>
<!-- \\Slothsoft\\Farah\\Module\\Executable\\ResultBuilderStrategy\\ResultBuilderStrategyInterface -->
<g id="node11" class="node"><title>\\Slothsoft\\Farah\\Module\\Executable\\ResultBuilderStrategy\\ResultBuilderStrategyInterface</title>
<ellipse fill="none" stroke="black" cx="334.72" cy="-72" rx="334.941" ry="18"/>
<text text-anchor="middle" x="334.72" y="-68.3" font-family="Times New Roman,serif" font-size="14.00" fill="gray">\Slothsoft\Farah\Module\Executable\ResultBuilderStrategy\ResultBuilderStrategyInterface</text>
</g>
<!-- \\Slothsoft\\SSE\\Results\\ServerResultBuilder&#45;&gt;\\Slothsoft\\Farah\\Module\\Executable\\ResultBuilderStrategy\\ResultBuilderStrategyInterface -->
<g id="edge3" class="edge"><title>\\Slothsoft\\SSE\\Results\\ServerResultBuilder&#45;&gt;\\Slothsoft\\Farah\\Module\\Executable\\ResultBuilderStrategy\\ResultBuilderStrategyInterface</title>
<path fill="none" stroke="black" stroke-dasharray="1,5" d="M741.382,-340.544C738.535,-338.607 735.866,-336.435 733.441,-334 657.054,-257.301 752.732,-168.139 669.441,-99 603.016,-43.8624 501.346,-43.6123 427.681,-53.1223"/>
<polygon fill="none" stroke="black" points="426.909,-49.6953 417.479,-54.5243 427.862,-56.6302 426.909,-49.6953"/>
</g>
<!-- \\Slothsoft\\SSE\\Stream -->
<g id="node3" class="node"><title>\\Slothsoft\\SSE\\Stream</title>
<polygon fill="none" stroke="black" points="842.441,-266 785.441,-266 785.441,-230 842.441,-230 842.441,-266"/>
<text text-anchor="middle" x="813.941" y="-245.2" font-family="Courier,monospace" font-size="11.00">Stream</text>
</g>
<!-- \\Slothsoft\\Core\\IO\\HTTPStream -->
<g id="node12" class="node"><title>\\Slothsoft\\Core\\IO\\HTTPStream</title>
<ellipse fill="none" stroke="black" cx="334.72" cy="-18" rx="129.977" ry="18"/>
<text text-anchor="middle" x="334.72" y="-14.3" font-family="Times New Roman,serif" font-size="14.00" fill="gray">\Slothsoft\Core\IO\HTTPStream</text>
</g>
<!-- \\Slothsoft\\SSE\\Stream&#45;&gt;\\Slothsoft\\Core\\IO\\HTTPStream -->
<g id="edge4" class="edge"><title>\\Slothsoft\\SSE\\Stream&#45;&gt;\\Slothsoft\\Core\\IO\\HTTPStream</title>
<path fill="none" stroke="black" d="M806.352,-229.865C790.288,-188.603 744.806,-87.961 669.441,-45 599.409,-5.07986 507.32,-0.487232 437.621,-4.66194"/>
<polygon fill="none" stroke="black" points="437.25,-1.17886 427.506,-5.33833 437.717,-8.16326 437.25,-1.17886"/>
</g>
<!-- \\Slothsoft\\SSE\\EventGenerator -->
<g id="node4" class="node"><title>\\Slothsoft\\SSE\\EventGenerator</title>
<polygon fill="none" stroke="black" points="869.441,-500 758.441,-500 758.441,-464 869.441,-464 869.441,-500"/>
<text text-anchor="middle" x="813.941" y="-479.2" font-family="Courier,monospace" font-size="11.00">EventGenerator</text>
</g>
<!-- \\Slothsoft\\SSE\\EventGenerator&#45;&gt;\\Slothsoft\\Core\\IO\\Writable\\ChunkWriterInterface -->
<g id="edge5" class="edge"><title>\\Slothsoft\\SSE\\EventGenerator&#45;&gt;\\Slothsoft\\Core\\IO\\Writable\\ChunkWriterInterface</title>
<path fill="none" stroke="black" stroke-dasharray="1,5" d="M758.065,-475.326C748.832,-471.987 740.101,-467.104 733.441,-460 638.112,-358.321 773.949,-245.218 669.441,-153 601.589,-93.128 492.849,-96.0895 418.042,-107.605"/>
<polygon fill="none" stroke="black" points="417.03,-104.224 407.72,-109.281 418.152,-111.133 417.03,-104.224"/>
</g>
<!-- \\Slothsoft\\SSE\\UnisonServer -->
<g id="node5" class="node"><title>\\Slothsoft\\SSE\\UnisonServer</title>
<polygon fill="none" stroke="black" points="862.941,-608 764.941,-608 764.941,-572 862.941,-572 862.941,-608"/>
<text text-anchor="middle" x="813.941" y="-587.2" font-family="Courier,monospace" font-size="11.00">UnisonServer</text>
</g>
<!-- \\Slothsoft\\SSE\\Server -->
<g id="node6" class="node"><title>\\Slothsoft\\SSE\\Server</title>
<polygon fill="none" stroke="black" points="363.22,-581 306.22,-581 306.22,-545 363.22,-545 363.22,-581"/>
<text text-anchor="middle" x="334.72" y="-560.2" font-family="Courier,monospace" font-size="11.00">Server</text>
</g>
<!-- \\Slothsoft\\SSE\\UnisonServer&#45;&gt;\\Slothsoft\\SSE\\Server -->
<g id="edge6" class="edge"><title>\\Slothsoft\\SSE\\UnisonServer&#45;&gt;\\Slothsoft\\SSE\\Server</title>
<path fill="none" stroke="black" d="M764.556,-587.263C669.359,-581.876 459.528,-570.005 373.571,-565.142"/>
<polygon fill="none" stroke="black" points="373.661,-561.641 363.479,-564.571 373.266,-568.63 373.661,-561.641"/>
</g>
<!-- \\Slothsoft\\SSE\\VCTServer -->
<g id="node7" class="node"><title>\\Slothsoft\\SSE\\VCTServer</title>
<polygon fill="none" stroke="black" points="852.441,-554 775.441,-554 775.441,-518 852.441,-518 852.441,-554"/>
<text text-anchor="middle" x="813.941" y="-533.2" font-family="Courier,monospace" font-size="11.00">VCTServer</text>
</g>
<!-- \\Slothsoft\\SSE\\VCTServer&#45;&gt;\\Slothsoft\\SSE\\Server -->
<g id="edge7" class="edge"><title>\\Slothsoft\\SSE\\VCTServer&#45;&gt;\\Slothsoft\\SSE\\Server</title>
<path fill="none" stroke="black" d="M775.095,-538.141C685.803,-543.193 462.819,-555.809 373.547,-560.86"/>
<polygon fill="none" stroke="black" points="373.127,-557.378 363.34,-561.437 373.522,-564.367 373.127,-557.378"/>
</g>
<!-- \\Slothsoft\\SSE\\WaitingGenerator -->
<g id="node8" class="node"><title>\\Slothsoft\\SSE\\WaitingGenerator</title>
<polygon fill="none" stroke="black" points="876.441,-320 751.441,-320 751.441,-284 876.441,-284 876.441,-320"/>
<text text-anchor="middle" x="813.941" y="-299.2" font-family="Courier,monospace" font-size="11.00">WaitingGenerator</text>
</g>
<!-- \\Slothsoft\\SSE\\WaitingGenerator&#45;&gt;\\Slothsoft\\Core\\IO\\Writable\\ChunkWriterInterface -->
<g id="edge8" class="edge"><title>\\Slothsoft\\SSE\\WaitingGenerator&#45;&gt;\\Slothsoft\\Core\\IO\\Writable\\ChunkWriterInterface</title>
<path fill="none" stroke="black" stroke-dasharray="1,5" d="M751.308,-286.498C744.876,-283.339 738.758,-279.548 733.441,-275 686.908,-235.203 720.516,-186.77 669.441,-153 603.124,-109.152 512.41,-104.45 442.299,-109.582"/>
<polygon fill="none" stroke="black" points="441.794,-106.111 432.109,-110.407 442.359,-113.088 441.794,-106.111"/>
</g>
</g>
</svg>
